# xmcd CD database file
#
# Track frame offsets:
#	150
#	20820
#	31146
#	53452
#	66125
#	91785
#	110363
#	124989
#	140087
#	153502
#	172395
#	185185
#	211879
#	224526
#	237181
#	264812
#	283200
#	296603
#	327265
#
# Disc length: 4622 seconds
#
# Revision: 0
# Processed by: cddbd v1.5.1PL0 Copyright (c) Steve Scherf et al.
# Submitted via: CDex 1.51
#
DISCID=27120c13
DTITLE=Benkó Dixieland Band - Válogatás
DYEAR=1900
DGENRE=Jazz
TTITLE0=Ain't Misbehavin'
TTITLE1=Blue Gras Medley
TTITLE2=China Boy
TTITLE3=Creole Jazz
TTITLE4=Dark Eyes
TTITLE5=Heart Of My Heart
TTITLE6=Chattanooga Choo Choo
TTITLE7=Requiem
TTITLE8=It Head To Be You
TTITLE9=Jó Éjszakát
TTITLE10=Little Dolphin
TTITLE11=St. Louis Blues
TTITLE12=Muskrat Ramble
TTITLE13=Our Hearts Are Full Of Joy
TTITLE14=St. James Infirmary Blues
TTITLE15=Stranger On The Shore
TTITLE16=Sweet Georgia Brown
TTITLE17=Tin Root Blues
TTITLE18=Vágyom Egy Nõ Után
EXTD=
EXTT0=
EXTT1=
EXTT2=
EXTT3=
EXTT4=
EXTT5=
EXTT6=
EXTT7=
EXTT8=
EXTT9=
EXTT10=
EXTT11=
EXTT12=
EXTT13=
EXTT14=
EXTT15=
EXTT16=
EXTT17=
EXTT18=
PLAYORDER=
